# xmcd
#
# Track frame offsets:
#	150
#	14305
#	27962
#	63130
#	79261
#	94587
#	113599
#	136939
#	156371
#	166084
#	189529
#	208345
#	231970
#	252653
#	269179
#	284366
#	309341
#	321108
#	338380
#
# Disc length: 4660 seconds
#
# Revision: 0
# Processed by: cddbd v1.5.2PL0 Copyright (c) Steve Scherf et al.
# Submitted via: EZCDAudioConverter 1.3.4.1
#
DISCID=09123213
DTITLE=New Mastersounds - Masterology
DYEAR=1900
DGENRE=
TTITLE0=Baby Bouncer
TTITLE1=Can't Hold Me Down
TTITLE2=Land Of Nod
TTITLE3=Ode To Bobby Gentry
TTITLE4=Hole In The Bag
TTITLE5=All I Want (Right Now)
TTITLE6=The Minx
TTITLE7=Better Off Dead
TTITLE8=La Cova
TTITLE9=Nervous
TTITLE10=Thermal Bad
TTITLE11=Your Love Is Mine
TTITLE12=Colorado Sun (Jesse's Backyard)
TTITLE13=The Vandenburg Suite
TTITLE14=Give Me A Minute (Part 2)
TTITLE15=Dusty Groove
TTITLE16=Miracles
TTITLE17=Idris
TTITLE18=Butter For Yo' Popcorn
EXTD=
EXTT0=
EXTT1=
EXTT2=
EXTT3=
EXTT4=
EXTT5=
EXTT6=
EXTT7=
EXTT8=
EXTT9=
EXTT10=
EXTT11=
EXTT12=
EXTT13=
EXTT14=
EXTT15=
EXTT16=
EXTT17=
EXTT18=
PLAYORDER=
